<svg xmlns="http://www.w3.org/2000/svg" version="1.1" xmlns:xlink="http://www.w3.org/1999/xlink" xmlns:svgjs="http://svgjs.dev/svgjs" width="1440" height="560" preserveAspectRatio="none" viewBox="0 0 1440 560"><g clip-path="url(&quot;#SvgjsClipPath1013&quot;)" fill="none"><path d="M842.97 308.09C863.55 306.9 882.62 297.67 896.74 282.65 910.41 268.11 917 248.84 917.42 228.88 917.85 208.43 912.78 187.96 899.07 172.78 884.68 156.85 864.43 145.66 842.97 146.45 822.09 147.22 806.09 162.47 790.86 176.77 774.9 191.75 756.76 207.05 755.16 228.88 753.48 251.8 765.56 273.84 782.62 289.23 798.89 303.91 821.1 309.35 842.97 308.09" fill="#488fdb" stroke="none"></path><path d="M831.97 323.09C852.55 321.9 871.62 312.67 885.74 297.65 899.41 283.11 906 263.84 906.42 243.88 906.85 223.43 901.78 202.96 888.07 187.78 873.68 171.85 853.43 160.66 831.97 161.45 811.09 162.22 795.09 177.47 779.86 191.77 763.9 206.75 745.76 222.05 744.16 243.88 742.48 266.8 754.56 288.84 771.62 304.23 787.89 318.91 810.1 324.35 831.97 323.09" fill="none" stroke-width="2" stroke="#2164aa"></path><path d="M35.77 383.5C64.66 383.47 95.45 384.82 117.27 365.88 140.25 345.93 150.08 314.81 149.96 284.38 149.84 254.08 138.32 224.68 116.61 203.54 95.17 182.67 65.68 173.75 35.77 173.2 5.21 172.63-26.11 179.27-48.12 200.49-70.47 222.03-79.97 253.34-79.55 284.38-79.14 314.99-69.09 346.08-45.88 366.03-23.94 384.89 6.84 383.53 35.77 383.5" fill="#488fdb" stroke="none"></path><path d="M29.77 400.5C58.66 400.47 89.45 401.82 111.27 382.88 134.25 362.93 144.08 331.81 143.96 301.38 143.84 271.08 132.32 241.68 110.61 220.54 89.17 199.67 59.68 190.75 29.77 190.2-0.79 189.63-32.11 196.27-54.12 217.49-76.47 239.03-85.97 270.34-85.55 301.38-85.14 331.99-75.09 363.08-51.88 383.03-29.94 401.89 0.84 400.53 29.77 400.5" fill="none" stroke-width="2" stroke="#2164aa"></path><path d="M491.99 501.9C508.18 501.54 523.23 494.77 534.99 483.64 547.11 472.17 556.78 457.33 556.71 440.64 556.64 424 547.69 408.3 534.62 398.01 522.8 388.7 507.04 389.81 491.99 389.68 476.73 389.54 460.3 387.46 448.59 397.24 436.13 407.64 431.25 424.41 430.96 440.64 430.66 457.19 435.33 473.9 447.01 485.62 458.71 497.37 475.41 502.27 491.99 501.9" fill="#54c076" stroke="none"></path><path d="M479.99 494.9C496.18 494.54 511.23 487.77 522.99 476.64 535.11 465.17 544.78 450.33 544.71 433.64 544.64 417 535.69 401.3 522.62 391.01 510.8 381.7 495.04 382.81 479.99 382.68 464.73 382.54 448.3 380.46 436.59 390.24 424.13 400.64 419.25 417.41 418.96 433.64 418.66 450.19 423.33 466.9 435.01 478.62 446.71 490.37 463.41 495.27 479.99 494.9" fill="none" stroke-width="2" stroke="#348d50"></path><path d="M562.71 121.88C574.82 122.54 587.63 119.03 595.61 109.9 603.25 101.16 603 88.56 601.93 77 600.98 66.71 597.23 57.09 590.04 49.67 582.73 42.12 573.22 36.71 562.71 36.51 552.02 36.31 541.85 41.02 534.32 48.61 526.82 56.17 522.75 66.35 522.54 77 522.33 87.87 525.96 98.4 533.21 106.5 540.9 115.09 551.2 121.25 562.71 121.88" fill="#ff9500" stroke="none"></path><path d="M546.71 133.88C558.82 134.54 571.63 131.03 579.61 121.9 587.25 113.16 587 100.56 585.93 89 584.98 78.71 581.23 69.09 574.04 61.67 566.73 54.12 557.22 48.71 546.71 48.51 536.02 48.31 525.85 53.02 518.32 60.61 510.82 68.17 506.75 78.35 506.54 89 506.33 99.87 509.96 110.4 517.21 118.5 524.9 127.09 535.2 133.25 546.71 133.88" fill="none" stroke-width="2" stroke="#b36800"></path><path d="M311.76 71.82C323.26 71.53 331.25 61.06 338.44 52.09 344.66 44.33 348.62 35.34 348.95 25.41 349.29 15.09 347.53 4.25 340.26-3.09 332.97-10.45 322.12-12.28 311.76-12.13 301.58-11.98 291.29-9.46 284.09-2.26 276.89 4.94 274.32 15.23 274.25 25.41 274.18 35.67 277.24 45.5 283.69 53.48 291 62.52 300.14 72.12 311.76 71.82" fill="#488fdb" stroke="none"></path><path d="M326.76 58.82C338.26 58.53 346.25 48.06 353.44 39.09 359.66 31.33 363.62 22.34 363.95 12.41 364.29 2.09 362.53-8.75 355.26-16.09 347.97-23.45 337.12-25.28 326.76-25.13 316.58-24.98 306.29-22.46 299.09-15.26 291.89-8.06 289.32 2.23 289.25 12.41 289.18 22.67 292.24 32.5 298.69 40.48 306 49.52 315.14 59.12 326.76 58.82" fill="none" stroke-width="2" stroke="#2164aa"></path><path d="M1214.57 416.61C1229.73 417.05 1241.91 405.11 1251.85 393.65 1260.97 383.14 1266.07 370.27 1266.84 356.37 1267.66 341.5 1266.51 325.48 1256.2 314.74 1245.74 303.85 1229.64 301.01 1214.57 301.9 1200.41 302.73 1188.05 309.82 1177.57 319.37 1166.45 329.51 1154.42 341.32 1154.8 356.37 1155.17 371.24 1168.91 381 1179.38 391.56 1189.92 402.19 1199.61 416.18 1214.57 416.61" fill="#fd3f3f" stroke="none"></path><path d="M1201.57 423.61C1216.73 424.05 1228.91 412.11 1238.85 400.65 1247.97 390.14 1253.07 377.27 1253.84 363.37 1254.66 348.5 1253.51 332.48 1243.2 321.74 1232.74 310.85 1216.64 308.01 1201.57 308.9 1187.41 309.73 1175.05 316.82 1164.57 326.37 1153.45 336.51 1141.42 348.32 1141.8 363.37 1142.17 378.24 1155.91 388 1166.38 398.56 1176.92 409.19 1186.61 423.18 1201.57 423.61" fill="none" stroke-width="2" stroke="#db0202"></path><path d="M968.64 80.04C997.42 80.9 1023.9 66.98 1045.07 47.47 1067.27 27.01 1086.44 1.23 1086.89-28.96 1087.34-59.49 1069.62-86.79 1047.38-107.7 1025.88-127.91 998.14-139.25 968.64-140.14 938.13-141.06 905.18-135.5 884.99-112.61 865.53-90.55 868.36-58.3 870.55-28.96 872.53-2.49 878.88 23.32 896.63 43.05 915.39 63.9 940.6 79.2 968.64 80.04" fill="#fd3f3f" stroke="none"></path><path d="M979.64 66.04C1008.42 66.9 1034.9 52.98 1056.07 33.47 1078.27 13.01 1097.44-12.77 1097.89-42.96 1098.34-73.49 1080.62-100.79 1058.38-121.7 1036.88-141.91 1009.14-153.25 979.64-154.14 949.13-155.06 916.18-149.5 895.99-126.61 876.53-104.55 879.36-72.3 881.55-42.96 883.53-16.49 889.88 9.32 907.63 29.05 926.39 49.9 951.6 65.2 979.64 66.04" fill="none" stroke-width="2" stroke="#db0202"></path><path d="M1059.63 565.14C1074.13 564.86 1085.57 553.55 1094.66 542.25 1102.67 532.29 1105.75 519.99 1106.2 507.22 1106.68 493.83 1106.08 479.68 1097.24 469.61 1087.95 459.03 1073.7 454.6 1059.63 454.21 1045.12 453.81 1029.54 456.63 1019.89 467.48 1010.58 477.95 1011.9 493.22 1012.51 507.22 1013.08 520.36 1014.91 533.44 1023.21 543.64 1032.46 555.01 1044.97 565.43 1059.63 565.14" fill="#54c076" stroke="none"></path><path d="M1072.63 582.14C1087.13 581.86 1098.57 570.55 1107.66 559.25 1115.67 549.29 1118.75 536.99 1119.2 524.22 1119.68 510.83 1119.08 496.68 1110.24 486.61 1100.95 476.03 1086.7 471.6 1072.63 471.21 1058.12 470.81 1042.54 473.63 1032.89 484.48 1023.58 494.95 1024.9 510.22 1025.51 524.22 1026.08 537.36 1027.91 550.44 1036.21 560.64 1045.46 572.01 1057.97 582.43 1072.63 582.14" fill="none" stroke-width="2" stroke="#348d50"></path><path d="M1070.93 215.43C1080.06 215.25 1088.55 211.09 1094.94 204.57 1101.26 198.12 1104.49 189.57 1105.08 180.56 1105.72 170.81 1104.54 160.71 1098.3 153.19 1091.52 145.03 1081.54 139.37 1070.93 139.45 1060.38 139.53 1050.89 145.63 1043.95 153.58 1037.48 161 1034.69 170.73 1035.07 180.56 1035.44 189.99 1039.21 198.93 1045.98 205.51 1052.65 211.99 1061.63 215.61 1070.93 215.43" fill="#54c076" stroke="none"></path><path d="M1056.93 205.43C1066.06 205.25 1074.55 201.09 1080.94 194.57 1087.26 188.12 1090.49 179.57 1091.08 170.56 1091.72 160.81 1090.54 150.71 1084.3 143.19 1077.52 135.03 1067.54 129.37 1056.93 129.45 1046.38 129.53 1036.89 135.63 1029.95 143.58 1023.48 151 1020.69 160.73 1021.07 170.56 1021.44 179.99 1025.21 188.93 1031.98 195.51 1038.65 201.99 1047.63 205.61 1056.93 205.43" fill="none" stroke-width="2" stroke="#348d50"></path><path d="M1439.96 538.37C1454.84 537.71 1467.45 528.31 1477.32 517.16 1486.53 506.76 1492.42 493.68 1491.84 479.8 1491.28 466.45 1483.27 455.36 1474.32 445.44 1464.7 434.77 1454.32 422.08 1439.96 422.26 1425.67 422.44 1415.91 435.59 1406.47 446.31 1397.85 456.1 1390.57 466.82 1389.29 479.8 1387.86 494.28 1389.63 509.61 1399.15 520.61 1409.24 532.27 1424.55 539.05 1439.96 538.37" fill="#2774c6" stroke="none"></path><path d="M1452.96 527.37C1467.84 526.71 1480.45 517.31 1490.32 506.16 1499.53 495.76 1505.42 482.68 1504.84 468.8 1504.28 455.45 1496.27 444.36 1487.32 434.44 1477.7 423.77 1467.32 411.08 1452.96 411.26 1438.67 411.44 1428.91 424.59 1419.47 435.31 1410.85 445.1 1403.57 455.82 1402.29 468.8 1400.86 483.28 1402.63 498.61 1412.15 509.61 1422.24 521.27 1437.55 528.05 1452.96 527.37" fill="none" stroke-width="2" stroke="#1b518b"></path><path d="M184.49 460.57C195.68 461.79 206.31 455.44 214.22 447.43 222.08 439.47 226.83 428.89 226.82 417.7 226.81 406.52 222.75 395.19 214.18 388.01 206.15 381.28 194.96 381.81 184.49 382.2 174.56 382.57 164.13 383.28 156.91 390.12 149.54 397.1 146.3 407.58 147.02 417.7 147.7 427.2 154.33 434.42 160.6 441.59 167.56 449.55 173.98 459.43 184.49 460.57" fill="#fd3f3f" stroke="none"></path><path d="M165.49 465.57C176.68 466.79 187.31 460.44 195.22 452.43 203.08 444.47 207.83 433.89 207.82 422.7 207.81 411.52 203.75 400.19 195.18 393.01 187.15 386.28 175.96 386.81 165.49 387.2 155.56 387.57 145.13 388.28 137.91 395.12 130.54 402.1 127.3 412.58 128.02 422.7 128.7 432.2 135.33 439.42 141.6 446.59 148.56 454.55 154.98 464.43 165.49 465.57" fill="none" stroke-width="2" stroke="#db0202"></path><path d="M857.58 626.1C875.3 626.29 891.46 616.66 903.57 603.72 915.26 591.23 920.23 574.79 921.55 557.73 923.01 538.85 923.26 518.7 911.26 504.05 898.31 488.24 878.01 479.06 857.58 479.61 837.59 480.15 820 491.91 806.71 506.86 794.24 520.89 786.99 538.99 788.13 557.73 789.21 575.45 799.89 590.32 812.54 602.77 825.07 615.1 840 625.92 857.58 626.1" fill="#ff9500" stroke="none"></path><path d="M869.58 639.1C887.3 639.29 903.46 629.66 915.57 616.72 927.26 604.23 932.23 587.79 933.55 570.73 935.01 551.85 935.26 531.7 923.26 517.05 910.31 501.24 890.01 492.06 869.58 492.61 849.59 493.15 832 504.91 818.71 519.86 806.24 533.89 798.99 551.99 800.13 570.73 801.21 588.45 811.89 603.32 824.54 615.77 837.07 628.1 852 638.92 869.58 639.1" fill="none" stroke-width="2" stroke="#b36800"></path></g><defs><clipPath id="SvgjsClipPath1013"><rect width="1440" height="560" x="0" y="0"></rect></clipPath></defs></svg>